<?xml version="1.0" encoding="UTF-8" standalone="no"?>
<!-- Created with Inkscape (http://www.inkscape.org/) -->

<svg
   width="1240"
   height="1240"
   viewBox="0 0 328.08333 328.08333"
   version="1.1"
   id="svg5"
   inkscape:version="1.2.1 (9c6d41e410, 2022-07-14, custom)"
   sodipodi:docname="app-icon.svg"
   xmlns:inkscape="http://www.inkscape.org/namespaces/inkscape"
   xmlns:sodipodi="http://sodipodi.sourceforge.net/DTD/sodipodi-0.dtd"
   xmlns="http://www.w3.org/2000/svg"
   xmlns:svg="http://www.w3.org/2000/svg"
   xmlns:rdf="http://www.w3.org/1999/02/22-rdf-syntax-ns#"
   xmlns:cc="http://creativecommons.org/ns#"
   xmlns:dc="http://purl.org/dc/elements/1.1/">
  <sodipodi:namedview
     id="namedview7"
     pagecolor="#ffffff"
     bordercolor="#000000"
     borderopacity="0.25"
     inkscape:showpageshadow="2"
     inkscape:pageopacity="0.0"
     inkscape:pagecheckerboard="0"
     inkscape:deskcolor="#d1d1d1"
     inkscape:document-units="mm"
     showgrid="true"
     inkscape:zoom="0.52724989"
     inkscape:cx="813.65594"
     inkscape:cy="639.16562"
     inkscape:window-width="1920"
     inkscape:window-height="1013"
     inkscape:window-x="0"
     inkscape:window-y="0"
     inkscape:window-maximized="1"
     inkscape:current-layer="layer1">
    <sodipodi:guide
       position="0,328.08333"
       orientation="0,1240"
       id="guide686"
       inkscape:locked="false" />
    <sodipodi:guide
       position="328.08333,328.08333"
       orientation="1240,0"
       id="guide688"
       inkscape:locked="false" />
    <sodipodi:guide
       position="328.08333,0"
       orientation="0,-1240"
       id="guide690"
       inkscape:locked="false" />
    <sodipodi:guide
       position="0,0"
       orientation="-1240,0"
       id="guide692"
       inkscape:locked="false" />
    <inkscape:grid
       type="xygrid"
       id="grid694" />
  </sodipodi:namedview>
  <defs
     id="defs2">
    <marker
       style="overflow:visible"
       id="marker4247"
       refX="0"
       refY="0"
       orient="auto-start-reverse"
       inkscape:stockid="Arrow4"
       markerWidth="5"
       markerHeight="6"
       viewBox="0 0 5 6"
       inkscape:isstock="true"
       inkscape:collect="always"
       preserveAspectRatio="xMidYMid">
      <path
         style="fill:context-stroke;fill-rule:evenodd;stroke:none"
         d="m 1,0 -3,3 h -2 l 3,-3 -3,-3 h 2 z"
         id="path4245" />
    </marker>
    <marker
       style="overflow:visible"
       id="Arrow4"
       refX="0"
       refY="0"
       orient="auto-start-reverse"
       inkscape:stockid="Arrow4"
       markerWidth="5"
       markerHeight="6"
       viewBox="0 0 5 6"
       inkscape:isstock="true"
       inkscape:collect="always"
       preserveAspectRatio="xMidYMid">
      <path
         style="fill:context-stroke;fill-rule:evenodd;stroke:none"
         d="m 1,0 -3,3 h -2 l 3,-3 -3,-3 h 2 z"
         id="path1741" />
    </marker>
  </defs>
  <g
     inkscape:label="Layer 1"
     inkscape:groupmode="layer"
     id="layer1">
    <circle
       style="fill:#29b3ca;fill-opacity:1;fill-rule:nonzero;stroke:#000000;stroke-width:2;stroke-opacity:1;stroke-dasharray:8,8;marker-mid:url(#Arrow4);marker-end:url(#marker4247);stroke-dashoffset:0"
       id="path1951"
       cx="164.04167"
       cy="164.04167"
       r="163.57166" />
    <path
       style="fill:#29b3ca;fill-opacity:1;fill-rule:nonzero;stroke:#000000;stroke-width:2;stroke-dasharray:none;stroke-opacity:1"
       d="m 164.21117,0.71470125 -0.339,20.69765275"
       id="path3244" />
    <path
       style="fill:#29b3ca;fill-opacity:1;fill-rule:nonzero;stroke:#000000;stroke-width:2;stroke-dasharray:none;stroke-opacity:1"
       d="m 164.21117,307.23573 -0.339,20.69765"
       id="path3244-3" />
    <path
       style="fill:#29b3ca;fill-opacity:1;fill-rule:nonzero;stroke:#000000;stroke-width:2;stroke-dasharray:none;stroke-opacity:1"
       d="M 21.024748,164.14379 0.32533,163.93954"
       id="path3244-3-6" />
    <path
       style="fill:#29b3ca;fill-opacity:1;fill-rule:nonzero;stroke:#000000;stroke-width:2;stroke-dasharray:none;stroke-opacity:1"
       d="m 327.3579,164.14379 -20.69942,-0.20425"
       id="path3244-3-6-7" />
    <circle
       style="fill:#29b3ca;fill-opacity:1;fill-rule:nonzero;stroke:#000000;stroke-width:2;stroke-dasharray:none;stroke-opacity:1"
       id="path3394"
       cx="164.04167"
       cy="164.04167"
       r="5.0286064" />
    <path
       style="fill:#29b3ca;fill-opacity:1;fill-rule:nonzero;stroke:#6be262;stroke-width:1.86545;stroke-dasharray:none;stroke-dashoffset:0;stroke-opacity:1"
       id="path5940"
       d="m 101.11829,94.018704 c 5.803,3.651399 11.27559,7.897236 16.66406,12.280696 9.78881,8.33802 18.55315,18.14075 26.59232,28.60304 1.54014,2.00436 3.01409,4.0734 4.52113,6.11009 3.45697,4.80929 6.592,9.89771 9.5993,15.07826 1.12386,1.93604 2.1414,3.95306 3.31933,5.84699 0.33211,0.53399 0.72412,1.01628 1.08619,1.52443 1.5388,0.50567 2.02251,0.9199 3.87576,-0.88618 0.7528,-0.73363 1.01622,-1.94017 1.44946,-2.95471 0.66761,-1.56333 1.26234,-3.16627 1.84962,-4.77081 1.68062,-4.59179 3.30763,-9.60446 4.84955,-14.23208 5.63069,-17.45592 11.04084,-35.06459 18.45592,-51.677577 1.68294,-3.770501 3.55142,-7.429916 5.32712,-11.144873 2.14386,-3.63588 4.14226,-7.38854 6.43158,-10.907637 6.28762,-9.665197 13.76924,-18.671199 21.80213,-26.477491 6.49007,-6.306989 8.11326,-7.261607 15.08491,-12.681934 0,0 -1.41462,-0.156809 -1.41462,-0.156809 v 0 c -6.9498,5.422273 -8.59592,6.398299 -15.06108,12.7071 -7.99456,7.801194 -15.48299,16.88424 -21.74783,26.51906 -2.29218,3.525198 -4.29761,7.280677 -6.44642,10.921018 -1.77594,3.717815 -3.64266,7.381273 -5.32782,11.153445 -7.42873,16.629038 -12.90013,34.228688 -18.59109,51.683798 -1.60488,4.73286 -3.18785,9.5501 -4.94679,14.2178 -0.60282,1.59967 -1.21505,3.19706 -1.90642,4.74961 -0.44418,0.99748 -1.23961,1.81108 -1.49589,2.89067 -0.0982,0.41354 0.74228,0.76454 0.54209,1.12725 -0.18857,0.3417 -0.69799,-0.14163 -1.04698,-0.21244 -0.37197,-0.50019 -0.77628,-0.9714 -1.1159,-1.50057 -1.20978,-1.88496 -2.24576,-3.9069 -3.38844,-5.84535 -3.0506,-5.17501 -6.2082,-10.27301 -9.68805,-15.09046 -1.5125,-2.03827 -2.99278,-4.1081 -4.53749,-6.11482 -8.04058,-10.44545 -16.78367,-20.25208 -26.52082,-28.64672 -5.34057,-4.38207 -10.76601,-8.617056 -16.49483,-12.323607 0,0 -1.72,0.210811 -1.72,0.210811 z" />
    <g
       id="g7382"
       transform="matrix(1.0007002,0,0,0.83799142,266.07302,96.756981)">
      <path
         style="fill:#29b3ca;fill-opacity:1;fill-rule:nonzero;stroke:#0000a3;stroke-width:2;stroke-dasharray:none;stroke-dashoffset:0;stroke-opacity:1"
         id="path7315"
         d="m -175.49016,66.960905 c -0.90099,6.639028 -1.14252,13.34716 -1.35504,20.03684 -0.23709,11.367439 -0.18172,22.738655 -0.17849,34.107895 0.0487,15.87503 0.68757,31.74018 1.38369,47.59753 0.62768,14.53315 1.10088,29.07153 1.92797,43.59515 0.32154,5.23351 0.77318,10.45706 1.24415,15.67868 0,0 1.79554,-0.0169 1.79554,-0.0169 v 0 c -0.51398,-5.21777 -1.00202,-10.4383 -1.33262,-15.67171 -0.86305,-14.52192 -1.37018,-29.05951 -2.0129,-43.59236 -0.69914,-15.85459 -1.3144,-31.71741 -1.31695,-47.59025 0.0224,-11.36759 0.0204,-22.737287 0.30352,-34.102065 0.22842,-6.683393 0.44636,-13.396163 1.48899,-20.012416 0,0 -1.94786,-0.0304 -1.94786,-0.0304 z" />
      <path
         style="fill:#29b3ca;fill-opacity:1;fill-rule:nonzero;stroke:#0000a3;stroke-width:2;stroke-dasharray:none;stroke-dashoffset:0;stroke-opacity:1"
         id="path7317"
         d="m -193.80578,220.5002 c 1.29763,-0.153 1.40564,-0.1817 2.96384,-0.26307 2.86509,-0.1496 6.03589,-0.20748 8.84792,-0.25025 6.45745,-0.0982 12.36039,-0.12389 18.85234,-0.16889 19.29432,-0.10233 38.58897,-0.11118 57.88352,-0.11132 11.51209,0.0148 23.023171,0.0851 34.530792,-0.27865 9.220922,-0.38875 18.447977,-0.55243 27.675848,-0.6481 3.952279,-0.0361 7.904694,-0.0495 11.857098,-0.0613 0,0 -1.826718,-0.28862 -1.826718,-0.28862 v 0 c -3.930515,0.0181 -7.861041,0.0367 -11.791444,0.0729 -9.227294,0.0974 -18.453912,0.25859 -27.67412,0.65218 -11.46297,0.36234 -22.928255,0.3186 -34.396126,0.29434 -19.25687,0.0156 -38.51379,0.039 -57.77047,0.13015 -5.33543,0.031 -13.56951,0.068 -19.06419,0.13785 -2.87675,0.0365 -6.08875,0.0851 -9.01485,0.23433 -1.53058,0.0781 -1.7374,0.11698 -3.03166,0.26513 0,0 1.95822,0.28333 1.95822,0.28333 z" />
      <path
         style="fill:#29b3ca;fill-opacity:1;fill-rule:nonzero;stroke:#0000a3;stroke-width:2;stroke-dasharray:none;stroke-dashoffset:0;stroke-opacity:1"
         id="path7319"
         d="m -39.604566,208.4397 c 6.093762,4.25588 12.201607,8.4915 18.292241,12.7519 1.928793,1.39438 2.959959,2.08652 4.731707,3.54712 0.439962,0.3627 2.177818,1.64749 2.208684,2.55265 0.03916,1.14832 -1.818784,1.99332 -2.385498,2.37406 -4.394995,1.70123 -2.075083,0.89944 -6.975205,2.36015 0,0 1.802782,0.23216 1.802782,0.23216 v 0 c 4.950685,-1.47976 2.600655,-0.66225 7.065117,-2.4089 0.774965,-0.55033 2.480973,-1.30841 2.423592,-2.65803 -0.04109,-0.96649 -1.761199,-2.21116 -2.266886,-2.62273 -1.792031,-1.45849 -2.849006,-2.16059 -4.795722,-3.55105 -6.075433,-4.21603 -12.16391,-8.41628 -18.142588,-12.76903 0,0 -1.958224,0.1917 -1.958224,0.1917 z" />
      <path
         style="fill:#29b3ca;fill-opacity:1;fill-rule:nonzero;stroke:#0000a3;stroke-width:2;stroke-dasharray:none;stroke-dashoffset:0;stroke-opacity:1"
         id="path7321"
         d="m -188.27626,70.763997 c 5.64867,-3.096895 11.32111,-6.145231 17.05569,-9.080786 2.64092,-1.291066 4.09237,-2.018019 6.69984,-3.230477 1.16824,-0.54323 3.3033,-1.598335 4.66912,-1.852116 2.26014,-0.419951 1.96097,-0.429762 1.54162,0.828839 2.11526,2.022777 2.85332,4.750687 3.55089,7.488857 0,0 1.90627,-0.04775 1.90627,-0.04775 v 0 c -0.71297,-2.776058 -1.46238,-5.545624 -3.5522,-7.642897 -1.17011,-0.319383 -2.313,-0.764259 -3.51031,-0.958151 -1.3466,-0.218067 -2.71777,0.325165 -3.91614,0.813419 -3.14178,1.280065 -6.0983,2.999666 -9.18223,4.402701 -5.77462,2.960034 -11.49306,6.0238 -17.22156,9.071184 0,0 1.95901,0.207174 1.95901,0.207174 z" />
      <path
         style="fill:#29b3ca;fill-opacity:1;fill-rule:nonzero;stroke:#cb3a62;stroke-width:2;stroke-dasharray:none;stroke-dashoffset:0;stroke-opacity:1"
         id="path7323"
         d="m -167.20104,160.61551 c 1.97123,-2.2529 4.31554,-4.10448 6.84354,-5.68666 1.42372,-0.81875 2.89131,-1.64617 4.55703,-1.76135 -0.45316,0.0358 -0.98701,-0.15334 -1.35948,0.10724 -0.21479,0.15026 0.48796,0.20237 0.70332,0.35181 0.30769,0.21351 0.58653,0.46783 0.85467,0.7293 1.21502,1.18482 2.15601,2.57725 3.11525,3.96616 1.89237,2.88176 3.76118,5.78374 5.91914,8.47602 1.19992,1.39038 2.53715,2.85614 4.43691,3.20559 0.46881,0.0862 0.94988,0.0813 1.42482,0.12199 1.33374,-0.16917 2.68874,-0.21618 4.00123,-0.50752 1.49436,-0.33171 4.18763,-1.79504 5.37505,-2.4614 3.46501,-1.94452 6.74221,-4.20047 10.03029,-6.42326 6.35783,-4.36955 12.35064,-9.22481 18.06768,-14.39662 4.291617,-3.99824 7.904166,-8.63049 11.728681,-13.05714 0.874784,-0.6621 1.617086,-2.26428 2.521498,-2.90091 0.162941,-0.11469 0.761688,-0.23448 0.57273,-0.17124 -1.703303,0.57006 -1.561632,0.0251 -0.45248,1.52355 0.354055,0.62902 0.731417,1.24547 1.062165,1.88705 1.002821,1.94525 2.368158,4.94954 3.24132,6.87383 1.877251,4.13714 3.718597,8.2908 5.587593,12.4317 2.49198,4.9284 4.688522,10.1629 8.326326,14.38653 1.96238,1.7488 3.788243,1.9709 6.50371,1.5714 1.214805,-0.17872 3.687082,-1.66916 4.558059,-2.14096 6.340461,-3.8449 11.963638,-8.6962 17.191653,-13.92196 4.168974,-4.29624 7.876154,-9.00392 11.820086,-13.50073 1.984431,-2.44451 4.426968,-4.36082 7.061853,-6.0422 0,0 -1.929028,-0.19306 -1.929028,-0.19306 v 0 c -2.615463,1.70836 -5.032953,3.65416 -7.009612,6.10021 -3.921358,4.50118 -7.61949,9.20159 -11.77897,13.49128 -5.222917,5.22199 -10.83877,10.07948 -17.211217,13.86498 -0.869831,0.45458 -1.712399,0.96566 -2.609493,1.36376 -0.645369,0.28638 -1.372213,0.37013 -2.00475,0.68384 -0.143158,0.071 0.628319,0.11474 0.473379,0.0756 -1.376534,-0.34732 -2.056185,-0.44258 -3.13954,-1.49114 -3.718402,-4.16177 -5.945799,-9.40374 -8.457036,-14.32392 -1.875864,-4.13655 -3.720957,-8.28602 -5.574464,-12.43258 -0.624422,-1.39692 -2.39485,-5.36081 -3.151076,-6.89228 -0.320228,-0.64852 -0.686044,-1.2735 -1.029068,-1.91026 -0.268161,-0.39824 -0.371258,-0.98778 -0.804482,-1.19473 -0.606237,-0.2896 -2.349275,-0.86778 -3.200794,-0.18312 -0.983599,0.79086 -1.505376,2.10131 -2.470375,2.91038 -3.773929,4.44401 -7.372108,9.06328 -11.659768,13.03863 -5.70465,5.16682 -11.68727,10.01683 -18.03908,14.37319 -3.29444,2.2199 -6.57645,4.48045 -10.06156,6.39804 -0.9838,0.54131 -2.00361,1.01443 -3.00542,1.52164 -0.80613,0.29583 -1.6562,0.49196 -2.41838,0.88749 -0.15227,0.079 -0.13539,0.31526 -0.20308,0.47289 -0.46851,-0.0273 -0.94178,-0.01 -1.40551,-0.0819 -1.89638,-0.29459 -3.24182,-1.71312 -4.43954,-3.088 -2.17784,-2.6755 -4.05238,-5.57424 -5.93729,-8.45986 -0.95635,-1.40117 -1.8967,-2.7961 -3.08609,-4.01559 -0.20249,-0.20761 -1.11189,-1.11498 -1.54554,-1.18698 -0.83868,-0.13926 -1.6982,-0.085 -2.5473,-0.12746 -1.6543,0.19457 -3.11177,1.01957 -4.52656,1.85776 -2.53063,1.61484 -4.86606,3.49986 -6.88941,5.72777 0,0 1.96841,0.15319 1.96841,0.15319 z" />
      <path
         style="fill:#29b3ca;fill-opacity:1;fill-rule:nonzero;stroke:#f343e3;stroke-width:2;stroke-dasharray:none;stroke-dashoffset:0;stroke-opacity:1"
         id="path7374"
         d="m -162.28165,194.10055 c 0.49765,-4.90891 0.85967,-9.82969 1.35728,-14.73888 0.79506,-8.0326 1.87254,-16.032 2.89495,-24.0376 0.91765,-6.73683 1.91829,-13.46287 3.07275,-20.16327 0.89338,-5.39653 2.22867,-10.70395 4.07132,-15.85256 0.60394,-1.60238 1.35346,-3.14565 2.17787,-4.64502 0.42326,-0.76978 0.79592,-1.47313 1.45992,-2.04666 -0.44376,0.0336 -1.12237,-0.29212 -1.33129,0.10083 -0.17727,0.33343 0.66377,0.37173 0.94765,0.62075 0.45024,0.39495 0.8517,0.84419 1.2411,1.29924 1.62681,1.90104 2.97967,4.02054 4.34974,6.10639 2.20356,3.4102 4.08735,7.0102 5.87877,10.64928 1.10653,2.10108 2.12552,4.24713 3.21342,6.35726 1.11517,1.68006 1.94784,3.59165 3.24576,5.1429 2.8681,1.07106 3.9823,-0.91223 5.27066,-2.86443 1.25391,-1.90002 1.69569,-2.80593 2.81839,-4.84508 2.69684,-5.3197 5.2149,-10.72324 8.01105,-15.99292 1.87035,-3.62916 3.94737,-7.13896 6.07344,-10.62163 1.74689,-2.79594 3.42221,-5.62589 5.46582,-8.21739 1.38131,-1.682985 2.92891,-3.258465 5.020065,-3.980105 0.27567,-0.04958 0.56927,-0.0391 0.827011,-0.148746 0.226121,-0.09619 -0.940075,-0.01923 -0.729364,0.107206 0.452287,0.271383 1.037175,0.20801 1.536745,0.377243 0.610717,0.206888 1.206299,0.461436 1.78407,0.747718 1.725977,0.85521 2.367939,1.3911 3.971591,2.502456 4.369486,3.220788 7.409326,7.631438 10.169602,12.219218 3.20679,5.39917 5.089242,11.36557 6.45061,17.45491 1.124826,6.57262 1.472256,13.24919 1.73535,19.90276 0.142202,4.01337 0.165729,8.02934 0.161768,12.04477 -0.0294,2.39677 0.249204,4.77632 0.805366,7.10484 0.390096,1.67182 1.706983,2.5114 3.199442,3.12788 1.527363,0.51201 3.124089,0.77307 4.693383,1.12424 2.170882,0.517 4.195931,1.47186 6.332079,2.10284 2.207395,0.60554 4.495462,0.74807 6.771341,0.82932 2.207019,-0.0382 4.393986,0.129 6.563336,0.52982 1.300446,0.26823 2.605479,0.58489 3.829418,1.10783 1.456171,0.80883 2.721353,1.93073 4.001109,2.98912 1.288859,1.0257 2.346084,2.29907 3.306349,3.62824 0.619054,1.06244 1.218319,2.13671 1.817484,3.21058 0,0 1.968336,-0.10066 1.968336,-0.10066 v 0 c -0.607333,-1.07818 -1.217142,-2.15493 -1.826485,-3.23196 -0.958858,-1.3473 -2.020313,-2.63956 -3.316581,-3.6781 -1.286097,-1.06402 -2.55402,-2.18398 -3.987522,-3.04444 -1.220182,-0.56304 -2.548242,-0.86686 -3.856517,-1.15033 -2.170268,-0.41687 -4.360256,-0.60972 -6.572035,-0.55863 -2.273258,-0.0722 -4.5598,-0.19774 -6.769867,-0.78059 -2.140723,-0.61079 -4.156766,-1.57292 -6.317689,-2.1168 -1.564005,-0.35411 -3.152122,-0.62067 -4.685499,-1.09447 -1.461418,-0.55337 -2.790877,-1.3213 -3.188586,-2.94108 -0.581414,-2.30985 -0.86196,-4.67339 -0.831554,-7.05793 -0.01582,-4.01835 -0.07817,-8.03669 -0.238614,-12.05216 -0.287033,-6.6629 -0.635365,-13.34929 -1.730198,-19.93621 -1.373261,-6.10508 -3.254152,-12.09025 -6.4537,-17.51419 -2.746217,-4.61681 -5.785776,-9.04548 -10.150745,-12.299963 -3.329059,-2.345576 -6.917656,-4.71111 -11.220516,-3.644024 -2.070513,0.799044 -3.611953,2.3886 -4.988283,4.091477 -2.03511,2.60421 -3.72627,5.43066 -5.46084,8.24039 -2.12133,3.48374 -4.18327,7.00066 -6.03967,10.63517 -2.76969,5.27879 -5.27677,10.68433 -7.99238,15.98994 -1.13373,2.02901 -1.5793,2.93972 -2.86044,4.81902 -0.37968,0.55696 -0.77691,1.10369 -1.20984,1.62035 -0.28499,0.3401 -1.0494,0.51408 -0.93876,0.94379 0.10922,0.42425 0.85916,0.18677 1.26941,0.34048 0.16433,0.0616 -0.34862,-0.0405 -0.52293,-0.0608 -1.35127,-1.48867 -2.13444,-3.44098 -3.25929,-5.09529 -1.09925,-2.10647 -2.11222,-4.25825 -3.23628,-6.35254 -1.81404,-3.64352 -3.71984,-7.24711 -5.9293,-10.66966 -1.36846,-2.09132 -2.72176,-4.20896 -4.31498,-6.14093 -0.0833,-0.10105 -1.66153,-1.97703 -2.15246,-2.07458 -0.84467,-0.16782 -1.72221,0.0235 -2.58332,0.0353 -0.62676,0.62255 -1.01115,1.33468 -1.42812,2.11584 -0.80723,1.51228 -1.54268,3.06538 -2.14067,4.67319 -1.81886,5.16345 -3.1369,10.48234 -4.02411,15.88573 -1.15587,6.70168 -2.15171,13.4295 -3.04027,20.17188 -1.01194,8.00956 -2.08201,16.01192 -2.92738,24.04157 -0.5148,4.91097 -0.86855,9.83685 -1.48118,14.73733 0,0 1.97351,0.0206 1.97351,0.0206 z" />
    </g>
  </g>
  <metadata
     id="metadata696">
    <rdf:RDF>
      <cc:License
         rdf:about="http://creativecommons.org/licenses/by/4.0/">
        <cc:permits
           rdf:resource="http://creativecommons.org/ns#Reproduction" />
        <cc:permits
           rdf:resource="http://creativecommons.org/ns#Distribution" />
        <cc:requires
           rdf:resource="http://creativecommons.org/ns#Notice" />
        <cc:requires
           rdf:resource="http://creativecommons.org/ns#Attribution" />
        <cc:permits
           rdf:resource="http://creativecommons.org/ns#DerivativeWorks" />
      </cc:License>
      <cc:Work
         rdf:about="">
        <cc:license
           rdf:resource="http://creativecommons.org/licenses/by/4.0/" />
        <dc:creator>
          <cc:Agent>
            <dc:title>Harald Held</dc:title>
          </cc:Agent>
        </dc:creator>
      </cc:Work>
    </rdf:RDF>
  </metadata>
</svg>
